<svg xmlns="http://www.w3.org/2000/svg" width="25.636" height="25.112" viewBox="0 0 25.636 25.112">
  <path id="search-ikon" d="M25.287,21.711l-4.992-4.889a1.214,1.214,0,0,0-.851-.343h-.816a10.018,10.018,0,0,0,2.2-6.277A10.308,10.308,0,0,0,10.415,0,10.308,10.308,0,0,0,0,10.2,10.308,10.308,0,0,0,10.415,20.4a10.5,10.5,0,0,0,6.409-2.158v.8a1.164,1.164,0,0,0,.351.834l4.992,4.889a1.215,1.215,0,0,0,1.7,0l1.417-1.388A1.165,1.165,0,0,0,25.287,21.711ZM10.415,16.478A6.341,6.341,0,0,1,4.006,10.2a6.341,6.341,0,0,1,6.409-6.277A6.341,6.341,0,0,1,16.825,10.2,6.341,6.341,0,0,1,10.415,16.478Z"/>
</svg>
